<svg width="55" height="61" viewBox="0 0 55 61" fill="none" xmlns="http://www.w3.org/2000/svg">
<rect width="18.3081" height="58.1856" rx="9.15403" transform="matrix(0.684455 0.729056 -0.729888 0.683567 42.469 4.83357)" fill="#F66E6E"/>
<rect width="19.0113" height="61.7642" rx="9.50565" transform="matrix(0.806209 -0.591631 0.592569 0.80552 1.55011 11.2477)" fill="#FDBABA"/>
<ellipse cx="1.16408" cy="1.62284" rx="1.16408" ry="1.62284" transform="matrix(0.684628 -0.728892 0.729725 0.683741 26.1169 24.6508)" fill="white"/>
<ellipse cx="1.17358" cy="1.61393" rx="1.17358" ry="1.61393" transform="matrix(0.684628 -0.728892 0.729725 0.683741 19.7771 28.6222)" fill="white"/>
<ellipse cx="1.17358" cy="1.61393" rx="1.17358" ry="1.61393" transform="matrix(0.684628 -0.728892 0.729725 0.683741 23.7395 33.3713)" fill="white"/>
<ellipse cx="1.17358" cy="1.61393" rx="1.17358" ry="1.61393" transform="matrix(0.684628 -0.728892 0.729725 0.683741 30.0792 29.4137)" fill="white"/>
</svg>
