<svg width="51" height="47" viewBox="0 0 51 47" fill="none" xmlns="http://www.w3.org/2000/svg">
<ellipse cx="25.5" cy="23.5" rx="25.5" ry="23.5" fill="#5160ED"/>
<path d="M13 23V28C13 28.6914 13.5586 29.25 14.25 29.25H15.5V21.75H14.25C13.5586 21.75 13 22.3086 13 23ZM31.125 16.75H26.75V14.25C26.75 13.5586 26.1914 13 25.5 13C24.8086 13 24.25 13.5586 24.25 14.25V16.75H19.875C18.1484 16.75 16.75 18.1484 16.75 19.875V30.5C16.75 31.8789 17.8711 33 19.25 33H31.75C33.1289 33 34.25 31.8789 34.25 30.5V19.875C34.25 18.1484 32.8516 16.75 31.125 16.75ZM23 29.25H20.5V28H23V29.25ZM21.75 24.5625C20.8867 24.5625 20.1875 23.8633 20.1875 23C20.1875 22.1367 20.8867 21.4375 21.75 21.4375C22.6133 21.4375 23.3125 22.1367 23.3125 23C23.3125 23.8633 22.6133 24.5625 21.75 24.5625ZM26.75 29.25H24.25V28H26.75V29.25ZM30.5 29.25H28V28H30.5V29.25ZM29.25 24.5625C28.3867 24.5625 27.6875 23.8633 27.6875 23C27.6875 22.1367 28.3867 21.4375 29.25 21.4375C30.1133 21.4375 30.8125 22.1367 30.8125 23C30.8125 23.8633 30.1133 24.5625 29.25 24.5625ZM36.75 21.75H35.5V29.25H36.75C37.4414 29.25 38 28.6914 38 28V23C38 22.3086 37.4414 21.75 36.75 21.75Z" fill="white"/>
</svg>
