<svg width="19" height="16" viewBox="0 0 19 16" fill="none" xmlns="http://www.w3.org/2000/svg">
<g clip-path="url(#clip0_32_37)">
<path d="M17.0192 7.99751L18.7256 6.59111C19.2343 6.18558 18.9971 5.46489 18.3299 5.33051L16.005 4.83083L16.6604 2.89286C16.8456 2.33542 16.2214 1.80964 15.5597 1.96564L13.2591 2.51773L12.666 0.559264C12.509 0.00617016 11.6436 -0.196111 11.1695 0.225889L9.5 1.67408L7.83049 0.22592C7.36179 -0.191299 6.4928 -0.000142403 6.33405 0.559295L5.74089 2.51776L3.4403 1.96567C2.77838 1.80961 2.15442 2.33558 2.3396 2.89289L2.99499 4.83086L0.670083 5.33054C0.00255929 5.46495 -0.234161 6.18576 0.274311 6.59111L1.98079 7.99751L0.274311 9.40389C-0.234384 9.80942 0.00281913 10.5301 0.670046 10.6645L2.99495 11.1642L2.33956 13.1021C2.15435 13.6596 2.77853 14.1854 3.44026 14.0294L5.74082 13.4773L6.33398 15.4357C6.4987 16.0162 7.36176 16.1863 7.83041 15.7691L9.5 14.3316L11.1695 15.7691C11.6334 16.1906 12.505 16.003 12.6659 15.4357L13.2591 13.4773L15.5597 14.0294C16.2215 14.1854 16.8455 13.6595 16.6604 13.1021L16.005 11.1642L18.3299 10.6645C18.9974 10.53 19.2341 9.80926 18.7256 9.40389L17.0192 7.99751Z" fill="#2160BE"/>
<path d="M14.6934 5.12L7.72673 10.4L4.56006 8" stroke="white" stroke-width="2" stroke-linecap="round" stroke-linejoin="round"/>
</g>
<defs>
<clipPath id="clip0_32_37">
<rect width="19" height="16" fill="white"/>
</clipPath>
</defs>
</svg>
