<svg width="60" height="51" viewBox="0 0 60 51" fill="none" xmlns="http://www.w3.org/2000/svg">
<rect x="0.442505" y="0.128204" width="58.7212" height="50.0769" rx="10" fill="#BDE7F4" fill-opacity="0.68"/>
<rect width="46.1046" height="34.0804" transform="matrix(0.999831 0.0184063 -0.0217228 0.999764 7.22766 7.28204)" fill="#2AD4EB" fill-opacity="0.14"/>
<path d="M37.8354 13.5265L41.6768 13.5972C42.6956 13.616 43.6662 13.9331 44.375 14.4789C45.0839 15.0246 45.4729 15.7543 45.4565 16.5073L45.0247 36.3829C45.0083 37.1359 44.5879 37.8507 43.8559 38.3699C43.1239 38.8891 42.1404 39.1703 41.1216 39.1515L18.0732 38.7272C17.0544 38.7084 16.0838 38.3913 15.375 37.8456C14.6662 37.2998 14.2771 36.5702 14.2935 35.8171L14.7254 15.9416C14.7417 15.1885 15.1621 14.4738 15.8941 13.9545C16.6261 13.4353 17.6096 13.1542 18.6284 13.1729L22.4698 13.2436" stroke="white" stroke-width="2" stroke-linecap="round" stroke-linejoin="round"/>
<path d="M35.9764 10.6518L24.4523 10.4396C23.3915 10.4201 22.5177 11.0399 22.5007 11.8239L22.439 14.6633C22.422 15.4474 23.2681 16.0988 24.3289 16.1184L35.8531 16.3305C36.9138 16.35 37.7876 15.7303 37.8046 14.9462L37.8663 12.1068C37.8833 11.3228 37.0372 10.6713 35.9764 10.6518Z" stroke="white" stroke-width="2" stroke-linecap="round" stroke-linejoin="round"/>
</svg>
