<svg width="284" height="227" viewBox="0 0 284 227" fill="none" xmlns="http://www.w3.org/2000/svg">
<g clip-path="url(#clip0_7_48)">
<path d="M7.45795 223.497C7.45494 223.771 7.65101 223.993 7.89818 223.996L281.014 226.995C281.261 226.998 281.462 226.78 281.465 226.506C281.468 226.232 281.272 226.01 281.024 226.007L7.90903 223.008C7.66186 223.005 7.46096 223.223 7.45795 223.497Z" fill="#3F3D58"/>
<path d="M96.9337 40.5384L9.33929 39.5763C5.9988 39.5396 3.31306 36.4962 3.35373 32.7936C3.39439 29.091 6.14632 26.1073 9.48682 26.1439L97.0812 27.106C100.422 27.1427 103.107 30.1861 103.067 33.8887C103.026 37.5913 100.274 40.575 96.9337 40.5384ZM9.4777 26.9741C6.54915 26.942 4.13837 29.5558 4.10272 32.8018C4.06707 36.0478 6.41986 38.714 9.34841 38.7461L96.9428 39.7082C99.8713 39.7403 102.282 37.1265 102.318 33.8805C102.353 30.6345 100.001 27.9683 97.0721 27.9362L9.4777 26.9741Z" fill="#E2E3E4"/>
<path d="M96.0704 119.136L8.47606 118.174C5.23668 118.138 2.63603 115.191 2.67546 111.601C2.7149 108.01 5.37965 105.121 8.61903 105.157L96.2134 106.119C99.4528 106.154 102.053 109.101 102.014 112.692C101.975 116.282 99.3098 119.172 96.0704 119.136Z" fill="#6C63FF"/>
<path d="M68.5195 13.7444L8.18834 13.0818C4.94896 13.0462 2.34831 10.0992 2.38774 6.50864C2.42718 2.91809 5.09193 0.028915 8.33131 0.0644931L68.6624 0.727111C71.9018 0.762689 74.5025 3.7097 74.463 7.30024C74.4236 10.8908 71.7589 13.78 68.5195 13.7444Z" fill="#E2E3E4"/>
<path d="M96.6452 66.8053L9.05084 65.8433C5.71034 65.8066 3.02461 62.7632 3.06527 59.0605C3.10594 55.3579 5.85787 52.3742 9.19837 52.4109L96.7927 53.373C100.133 53.4096 102.819 56.4531 102.778 60.1557C102.738 63.8583 99.9857 66.842 96.6452 66.8053ZM9.18925 53.2411C6.2607 53.2089 3.84992 55.8228 3.81426 59.0688C3.77861 62.3148 6.13141 64.9809 9.05996 65.0131L96.6543 65.9751C99.5829 66.0073 101.994 63.3935 102.029 60.1475C102.065 56.9014 99.7122 54.2353 96.7836 54.2031L9.18925 53.2411Z" fill="#E2E3E4"/>
<path d="M96.3566 93.0764L8.76226 92.1144C5.42177 92.0777 2.73603 89.0343 2.7767 85.3317C2.81737 81.629 5.5693 78.6453 8.90979 78.682L96.5042 79.6441C99.8447 79.6808 102.53 82.7242 102.49 86.4268C102.449 90.1294 99.6971 93.1131 96.3566 93.0764ZM8.90067 79.5122C5.97212 79.48 3.56134 82.0939 3.52569 85.3399C3.49004 88.5859 5.84283 91.252 8.77138 91.2842L96.3658 92.2463C99.2943 92.2784 101.705 89.6646 101.741 86.4186C101.776 83.1726 99.4236 80.5064 96.495 80.4743L8.90067 79.5122Z" fill="#E2E3E4"/>
<path d="M6.52891 21.2875L29.4855 21.5396C30.0322 21.5456 30.4725 22.0404 30.4658 22.6505C30.4591 23.2566 30.0081 23.7456 29.4613 23.7396L6.50475 23.4875C5.95799 23.4815 5.51772 22.9868 5.52442 22.3766C5.53107 21.7706 5.98215 21.2815 6.52891 21.2875Z" fill="#E2E3E4"/>
<path d="M6.23362 48.1772L29.1902 48.4293C29.7369 48.4353 30.1772 48.93 30.1705 49.536C30.1639 50.1421 29.7128 50.6311 29.166 50.6251L6.20951 50.373C5.66274 50.367 5.22247 49.8723 5.22913 49.2663C5.23579 48.6602 5.68686 48.1712 6.23362 48.1772Z" fill="#E2E3E4"/>
<path d="M5.93821 75.071L28.8948 75.3231C29.4415 75.3291 29.8818 75.8238 29.8751 76.434C29.8684 77.04 29.4174 77.5249 28.8706 77.5189L5.9141 77.2668C5.36733 77.2608 4.92706 76.7661 4.93377 76.1559C4.94042 75.5499 5.39145 75.065 5.93821 75.071Z" fill="#E2E3E4"/>
<path d="M169.286 56.7389L160.878 59.702L161.025 46.3402L168.624 46.4237L169.286 56.7389Z" fill="#9F616A"/>
<path d="M162.022 50.0502C166.63 50.1008 170.411 46.0012 170.467 40.8936C170.523 35.7859 166.833 31.6043 162.225 31.5537C157.617 31.5031 153.836 35.6026 153.78 40.7103C153.723 45.8179 157.414 49.9995 162.022 50.0502Z" fill="#9F616A"/>
<path d="M164.425 39.9097C163.029 39.8487 162.129 38.2737 161.601 36.8399C161.074 35.406 160.534 33.7602 159.245 33.1566C158.19 32.6634 156.286 35.9014 155.46 35.0247C154.597 34.1102 155.498 29.4746 156.433 28.6505C157.367 27.8263 158.634 27.6783 159.826 27.6291C162.734 27.5116 165.656 27.8052 168.498 28.4965C170.258 28.9227 172.063 29.5569 173.321 30.9822C174.912 32.7931 175.294 35.4999 175.382 38.0291C175.474 40.6164 175.309 43.3213 174.15 45.5711C172.99 47.8209 170.598 49.4635 168.327 48.8615C168.114 47.4892 168.361 46.0846 168.466 44.6909C168.568 43.3013 168.494 41.7976 167.739 40.6809C166.987 39.5642 165.352 39.1062 164.45 40.0802" fill="#2F2E43"/>
<path d="M174.655 43.227C175.497 42.5595 176.504 42.0019 177.528 42.1543C178.635 42.3159 179.564 43.339 179.835 44.5418C180.107 45.7445 179.774 47.061 179.074 48.033C178.378 49.0051 177.349 49.6414 176.266 49.9534C175.639 50.1333 174.953 50.2046 174.36 49.9158C173.489 49.487 173.027 48.2406 173.382 47.2565" fill="#2F2E43"/>
<path d="M141.77 129.892C141.179 132.924 142.17 135.712 143.979 136.118C145.787 136.524 147.732 134.391 148.319 131.359C148.569 130.149 148.545 128.895 148.251 127.696L155.676 80.1404L147.064 78.2441L143.2 126.566C142.481 127.538 141.993 128.678 141.77 129.896L141.77 129.892Z" fill="#9F616A"/>
<path d="M160.856 53.5701L154.965 53.5054C150.793 54.1611 149.635 56.6102 148.637 61.1492C147.116 68.0737 145.168 77.2933 145.533 77.4344C146.119 77.6567 156.09 82.997 161.215 81.8576L160.856 53.5701Z" fill="#E2E3E4"/>
<path d="M164.885 205.353L157.043 205.267L156.908 217.599L164.75 217.685L164.885 205.353Z" fill="#9F616A"/>
<path d="M149.19 224.979C148.366 224.969 147.632 224.941 147.079 224.876C144.999 224.642 143.029 222.914 142.04 221.907C141.596 221.454 141.461 220.738 141.7 220.126C141.874 219.688 142.21 219.36 142.628 219.236L148.152 217.553L157.138 210.984L157.237 211.185C157.274 211.26 158.131 213.017 158.41 214.199C158.517 214.648 158.483 215.022 158.311 215.31C158.193 215.508 158.027 215.623 157.895 215.688C158.054 215.876 158.556 216.264 160.111 216.555C162.379 216.978 162.887 214.373 162.907 214.265L162.923 214.178L162.991 214.129C164.082 213.369 164.753 213.023 164.98 213.1C165.122 213.148 165.361 213.233 165.93 220.351C165.992 220.576 166.427 222.216 166.103 223.778C165.751 225.476 159.046 224.817 157.703 224.669C157.666 224.673 152.635 225.016 149.194 224.979L149.19 224.979Z" fill="#2F2E43"/>
<path d="M187.322 195.909L180.617 200.436L186.39 210.964L193.094 206.438L187.322 195.909Z" fill="#9F616A"/>
<path d="M178.18 223.607C177.258 223.597 176.413 223.463 175.812 223.341C175.221 223.218 174.763 222.69 174.672 222.033C174.61 221.559 174.739 221.083 175.035 220.733L178.925 216.068L183.426 205.233L183.605 205.343C183.672 205.385 185.238 206.369 186.042 207.208C186.349 207.527 186.499 207.865 186.487 208.21C186.481 208.45 186.397 208.64 186.313 208.777C186.537 208.845 187.147 208.877 188.607 208.212C190.738 207.243 189.926 204.735 189.89 204.631L189.861 204.548L189.896 204.469C190.46 203.184 190.861 202.5 191.094 202.432C191.241 202.388 191.481 202.32 195.362 208.021C195.522 208.172 196.674 209.31 197.144 210.822C197.654 212.467 191.643 215.843 190.434 216.502C190.396 216.535 184.09 221.501 181.506 222.905C180.481 223.462 179.273 223.624 178.176 223.611L178.18 223.607Z" fill="#2F2E43"/>
<path d="M171.793 102.287L149.836 102.046L147.595 124.663L155.395 208.408L166.603 208.531L162.651 160.169L180.354 203.987L190.4 196.367L176.651 155.491C176.651 155.491 182.111 120.073 178.223 111.192C174.336 102.315 171.793 102.287 171.793 102.287Z" fill="#2F2E43"/>
<path d="M182.702 103.785L147.829 103.402L158.841 53.548L174.034 53.7149L182.702 103.785Z" fill="#E2E3E4"/>
<path d="M185.548 130.373C186.073 133.417 185.02 136.183 183.203 136.549C181.386 136.915 179.489 134.74 178.968 131.695C178.745 130.481 178.797 129.228 179.117 128.035L172.738 80.3279L181.39 78.6212L184.192 127.016C184.889 128.003 185.352 129.154 185.548 130.377L185.548 130.373Z" fill="#9F616A"/>
<path d="M168.143 53.6502L174.034 53.7149C178.191 54.4621 179.295 56.936 180.192 61.4958C181.562 68.4521 183.306 77.7123 182.938 77.8452C182.348 78.0546 172.261 83.1746 167.162 81.923L168.143 53.6502Z" fill="#E2E3E4"/>
</g>
<defs>
<clipPath id="clip0_7_48">
<rect width="281.476" height="223.922" fill="white" transform="translate(2.45923) rotate(0.629255)"/>
</clipPath>
</defs>
</svg>
