<svg width="278" height="285" viewBox="0 0 278 285" fill="none" xmlns="http://www.w3.org/2000/svg">
<g clip-path="url(#clip0_7_12)">
<path d="M212.843 281.777C209.284 276.62 207.122 268.474 207.689 260.543C208.256 252.612 211.768 245.321 216.323 243.637C220.878 241.953 226.07 246.615 227.454 254.245C228.215 239.535 229.092 224.209 233.653 211.682C237.783 200.339 244.936 192.223 252.688 190.771C260.44 189.319 268.602 194.803 273.436 205.294C278.271 215.786 279.455 231.039 276.069 243.085C273.574 251.958 268.979 258.562 264.164 263.935C248.605 281.149 229.944 288.149 211.614 283.648L212.843 281.777Z" fill="#F2F2F2"/>
<path d="M265.771 195.107C259.374 204.04 253.506 214.032 248.251 224.937C240.028 241.945 233.373 261.014 228.519 281.48C228.164 282.973 229.578 283.623 229.929 282.147C237.871 248.886 250.549 219.569 266.804 196.879C267.534 195.86 266.494 194.096 265.771 195.107Z" fill="white"/>
<path d="M89.4927 280.376C94.3812 273.293 97.3505 262.103 96.5718 251.211C95.7931 240.318 90.97 230.304 84.7138 227.991C78.4576 225.678 71.3259 232.081 69.4256 242.56C68.3799 222.356 67.1748 201.305 60.9104 184.1C55.2382 168.52 45.4138 157.373 34.7664 155.378C24.1189 153.384 12.9085 160.916 6.26812 175.327C-0.372295 189.738 -1.99817 210.687 2.6526 227.232C6.07866 239.42 12.3907 248.49 19.0041 255.869C40.1032 279.411 66.2766 289.23 91.181 282.945" fill="#F2F2F2"/>
<path d="M16.7972 161.334C25.5826 173.604 33.6423 187.328 40.8598 202.306C48.0783 217.269 54.4335 233.397 59.836 250.464C62.8558 260.038 65.5685 269.887 67.962 279.968C68.4501 282.019 66.5081 282.912 66.0255 280.884C61.7859 263.111 56.5407 246.094 50.3652 230.076C44.2196 214.116 37.1857 199.216 29.3622 185.585C24.9372 177.879 20.2685 170.596 15.3771 163.769C14.3745 162.369 15.8028 159.946 16.7972 161.334Z" fill="white"/>
<path d="M199.553 284.376H82.9207V79.176C82.9207 35.5181 103.634 0 129.094 0H153.379C178.84 0 199.553 35.5181 199.553 79.176V284.376Z" fill="#F2F2F2"/>
<path d="M175.268 284.376H82.9207V79.1758C82.8952 62.4471 85.9844 46.1412 91.7386 32.6322C91.9507 32.1364 92.1623 31.6471 92.3805 31.1631C95.1638 24.9036 98.4759 19.3909 102.208 14.8071C102.418 14.5441 102.63 14.2856 102.845 14.0272C105.968 10.3217 109.345 7.29263 112.902 5.00878C113.113 4.87153 113.328 4.73401 113.543 4.6021C116.759 2.63398 120.093 1.28582 123.483 0.582525C123.693 0.533293 123.909 0.494769 124.125 0.456244C127.429 -0.149477 130.761 -0.149477 134.064 0.456244C134.279 0.494769 134.495 0.533289 134.708 0.583052C138.097 1.28639 141.43 2.63439 144.646 4.60213C144.861 4.73403 145.076 4.87154 145.288 5.00906C148.8 7.26411 152.138 10.248 155.227 13.8942C155.442 14.147 155.657 14.4055 155.868 14.6639C157.96 17.2243 159.925 20.0767 161.743 23.1919C163.2 25.6907 164.559 28.3543 165.809 31.1648C166.026 31.6471 166.238 32.1365 166.449 32.6314C172.204 46.1406 175.293 62.4468 175.268 79.1758V284.376Z" fill="#CCCCCC"/>
<path d="M167.759 192.598C170.582 192.598 172.871 188.673 172.871 183.831C172.871 178.989 170.582 175.064 167.759 175.064C164.935 175.064 162.646 178.989 162.646 183.831C162.646 188.673 164.935 192.598 167.759 192.598Z" fill="#6C63FF"/>
<path d="M189.998 278.23H186.081L184.217 252.319L189.999 252.32L189.998 278.23Z" fill="#FFB8B8"/>
<path d="M183.282 276.311H190.838V284.468H178.525C178.525 283.396 178.648 282.336 178.888 281.346C179.127 280.356 179.477 279.457 179.919 278.7C180.36 277.942 180.885 277.341 181.462 276.931C182.039 276.522 182.658 276.311 183.282 276.311Z" fill="#2F2E41"/>
<path d="M209.49 278.23H205.573L203.709 252.319L209.491 252.32L209.49 278.23Z" fill="#FFB8B8"/>
<path d="M202.774 276.311H210.33V284.468H198.017C198.017 283.396 198.141 282.336 198.38 281.346C198.619 280.356 198.969 279.457 199.411 278.7C199.852 277.942 200.377 277.341 200.954 276.931C201.531 276.522 202.15 276.311 202.774 276.311Z" fill="#2F2E41"/>
<path d="M170.346 185.568C170.064 184.856 169.877 184.046 169.797 183.197C169.718 182.347 169.747 181.478 169.885 180.65C170.022 179.822 170.264 179.057 170.593 178.406C170.921 177.756 171.329 177.237 171.787 176.887L185.104 113.948L191.657 120.08L176.452 180.227C176.745 181.586 176.736 183.082 176.429 184.431C176.121 185.78 175.535 186.889 174.783 187.548C174.03 188.206 173.163 188.368 172.345 188.003C171.527 187.638 170.816 186.772 170.346 185.568Z" fill="#FFB8B8"/>
<path d="M207.489 197.394C207.054 196.966 206.678 196.379 206.39 195.676C206.101 194.972 205.905 194.168 205.817 193.321C205.729 192.474 205.75 191.604 205.879 190.773C206.009 189.941 206.243 189.168 206.565 188.508L202.439 121.93L209.897 122.514L211.611 188.003C212.222 189.004 212.597 190.355 212.665 191.799C212.734 193.243 212.491 194.68 211.983 195.838C211.475 196.995 210.737 197.793 209.908 198.08C209.08 198.367 208.219 198.123 207.489 197.394Z" fill="#FFB8B8"/>
<path d="M195.592 102.29C199.927 102.29 203.441 96.2644 203.441 88.8319C203.441 81.3994 199.927 75.3741 195.592 75.3741C191.258 75.3741 187.744 81.3994 187.744 88.8319C187.744 96.2644 191.258 102.29 195.592 102.29Z" fill="#FFB8B8"/>
<path d="M207.439 182.252H183.778L183.807 181.936C183.849 181.464 188.023 134.574 184.945 119.233C184.636 117.726 184.663 116.076 185.021 114.6C185.379 113.125 186.043 111.929 186.884 111.243C191.285 107.689 199.732 103.313 206.862 113.932C207.911 115.521 208.73 117.506 209.255 119.731C209.779 121.956 209.995 124.359 209.885 126.752L207.439 182.252Z" fill="#6C63FF"/>
<path d="M188.322 141.503L177.67 137.798L182.663 117.508C182.962 115.543 183.703 113.861 184.724 112.832C185.745 111.802 186.962 111.509 188.109 112.017C189.256 112.525 190.239 113.791 190.841 115.54C191.444 117.288 191.618 119.375 191.325 121.342L188.322 141.503Z" fill="#6C63FF"/>
<path d="M201.966 148.384L201.325 123.211C200.84 118.479 202.419 114.006 204.849 113.275C207.279 112.546 209.652 115.828 210.14 120.595L212.547 144.117L201.966 148.384Z" fill="#6C63FF"/>
<path d="M206.652 179.238C210.459 204.102 210.874 235.713 209.847 270.195L204.735 269.099L195.468 203.347L190.355 270.195L184.604 269.647C182.885 233.467 181.212 202.408 183.964 181.978L206.652 179.238Z" fill="#2F2E41"/>
<path d="M200.764 99.2325C199.299 101.907 196.58 100.471 196.39 96.8176C196.375 96.534 196.376 96.2485 196.393 95.9652C196.491 94.3469 197.037 92.8776 196.906 91.1689C196.876 90.7436 196.784 90.3383 196.638 89.9914C195.471 87.3124 192.732 91.1897 191.631 88.7644C190.956 87.2774 191.749 84.936 191.231 83.2739C190.547 81.0802 188.522 82.1623 187.252 80.961C185.839 79.6243 185.923 75.9062 186.853 73.6446C187.988 70.8866 189.977 69.4149 191.942 69.2028C193.906 68.9907 195.857 69.9012 197.691 71.1268C199.775 72.5193 201.841 74.4437 203.123 77.5856C204.683 81.4064 204.833 86.5431 204.053 91.0108C203.578 93.7286 201.959 97.0486 200.764 99.2325Z" fill="#2F2E41"/>
<path d="M268.408 284.729H32.4933C32.3925 284.728 32.2961 284.659 32.2249 284.537C32.1538 284.415 32.1139 284.249 32.1139 284.076C32.1139 283.904 32.1538 283.738 32.2249 283.616C32.2961 283.493 32.3925 283.424 32.4933 283.424H268.408C268.509 283.424 268.605 283.493 268.676 283.616C268.747 283.738 268.787 283.904 268.787 284.076C268.787 284.249 268.747 284.415 268.676 284.537C268.605 284.659 268.509 284.728 268.408 284.729Z" fill="#3F3D56"/>
<path d="M149.864 224.926H108.324C107.777 224.931 107.251 224.563 106.862 223.904C106.472 223.245 106.251 222.349 106.247 221.41V62.4177C106.251 61.4796 106.472 60.5827 106.862 59.9237C107.251 59.2647 107.777 58.8975 108.324 58.9025H149.864C150.411 58.8975 150.937 59.2647 151.327 59.9237C151.716 60.5827 151.937 61.4796 151.941 62.4177V221.41C151.937 222.349 151.716 223.245 151.327 223.904C150.937 224.563 150.411 224.931 149.864 224.926Z" fill="white"/>
<path d="M151.941 110.348H106.247V111.444H151.941V110.348Z" fill="#CCCCCC"/>
<path d="M152.101 172.872H106.407V173.968H152.101V172.872Z" fill="#CCCCCC"/>
<path d="M121.266 58.9026H120.626V225.474H121.266V58.9026Z" fill="#CCCCCC"/>
<path d="M137.242 58.9026H136.603V225.474H137.242V58.9026Z" fill="#CCCCCC"/>
</g>
<defs>
<clipPath id="clip0_7_12">
<rect width="278" height="285" fill="white"/>
</clipPath>
</defs>
</svg>
