<svg width="8" height="22" viewBox="0 0 8 22" fill="none" xmlns="http://www.w3.org/2000/svg">
<path d="M4.33406 7.70634C6.1576 7.71345 7.62664 9.06803 7.61887 10.7352C7.61109 12.4024 6.12947 13.7455 4.30592 13.7384C2.48238 13.7312 1.01334 12.3767 1.02111 10.7095C1.02889 9.0423 2.51051 7.69923 4.33406 7.70634ZM1.0555 3.33702C1.04772 5.0042 2.51676 6.35878 4.34031 6.36589C6.16386 6.373 7.64548 5.02993 7.65326 3.36274C7.66103 1.69556 6.19199 0.340983 4.36845 0.333874C2.5449 0.326764 1.06328 1.66984 1.0555 3.33702ZM0.986724 18.082C0.978948 19.7491 2.44799 21.1037 4.27153 21.1108C6.09508 21.1179 7.5767 19.7749 7.58448 18.1077C7.59226 16.4405 6.12322 15.0859 4.29967 15.0788C2.47612 15.0717 0.9945 16.4148 0.986724 18.082Z" fill="white"/>
</svg>
