<svg width="22" height="19" viewBox="0 0 22 19" fill="none" xmlns="http://www.w3.org/2000/svg">
<path d="M11 0C4.92339 0 0 4.25202 0 9.5C0 14.748 4.92339 19 11 19C17.0766 19 22 14.748 22 9.5C22 4.25202 17.0766 0 11 0ZM13.5327 13.4111L9.62056 10.9556C9.48306 10.8675 9.40323 10.7296 9.40323 10.5841V4.1371C9.40323 3.88427 9.64274 3.67742 9.93548 3.67742H12.0645C12.3573 3.67742 12.5968 3.88427 12.5968 4.1371V9.41189L15.4133 11.1817C15.6528 11.331 15.7016 11.6183 15.5286 11.8252L14.2778 13.3115C14.1048 13.5145 13.7722 13.5605 13.5327 13.4111Z" fill="white"/>
</svg>
