<svg width="32" height="27" viewBox="0 0 32 27" fill="none" xmlns="http://www.w3.org/2000/svg">
<path d="M15.5757 7.00451L5.33376 16.1572V26.0356C5.33376 26.2914 5.4274 26.5367 5.59408 26.7175C5.76077 26.8984 5.98685 27 6.22258 27L12.4477 26.9825C12.6826 26.9812 12.9075 26.8791 13.0733 26.6984C13.239 26.5176 13.332 26.2731 13.332 26.0181V20.2492C13.332 19.9935 13.4257 19.7482 13.5924 19.5673C13.759 19.3865 13.9851 19.2849 14.2208 19.2849H17.7761C18.0119 19.2849 18.2379 19.3865 18.4046 19.5673C18.5713 19.7482 18.665 19.9935 18.665 20.2492V26.0139C18.6646 26.1408 18.6873 26.2665 18.7318 26.3839C18.7763 26.5012 18.8417 26.6079 18.9243 26.6978C19.0069 26.7877 19.105 26.859 19.213 26.9076C19.321 26.9563 19.4368 26.9813 19.5538 26.9813L25.7766 27C26.0124 27 26.2384 26.8984 26.4051 26.7175C26.5718 26.5367 26.6654 26.2914 26.6654 26.0356V16.1506L16.4257 7.00451C16.3053 6.89922 16.1553 6.84181 16.0007 6.84181C15.8461 6.84181 15.6961 6.89922 15.5757 7.00451ZM31.7539 13.2254L27.1099 9.07193V0.723295C27.1099 0.531465 27.0396 0.347492 26.9146 0.211848C26.7896 0.0762042 26.62 0 26.4432 0H23.3324C23.1556 0 22.986 0.0762042 22.861 0.211848C22.736 0.347492 22.6658 0.531465 22.6658 0.723295V5.09983L17.6922 0.660007C17.215 0.233853 16.616 0.000851888 15.9979 0.000851888C15.3798 0.000851888 14.7809 0.233853 14.3036 0.660007L0.241925 13.2254C0.174423 13.286 0.118576 13.3604 0.0775751 13.4443C0.0365738 13.5283 0.0112218 13.6202 0.00296764 13.7148C-0.00528651 13.8094 0.00371897 13.9048 0.0294695 13.9956C0.0552201 14.0865 0.097211 14.1709 0.153043 14.2441L1.5696 16.1126C1.62528 16.1861 1.69377 16.2469 1.77114 16.2916C1.84851 16.3363 1.93325 16.364 2.02051 16.3731C2.10776 16.3823 2.19582 16.3726 2.27963 16.3448C2.36345 16.3169 2.44139 16.2714 2.50897 16.2108L15.5757 4.53325C15.6961 4.42797 15.8461 4.37055 16.0007 4.37055C16.1553 4.37055 16.3053 4.42797 16.4257 4.53325L29.493 16.2108C29.5605 16.2714 29.6383 16.317 29.722 16.3449C29.8057 16.3729 29.8936 16.3826 29.9808 16.3737C30.068 16.3647 30.1527 16.3372 30.2301 16.2927C30.3075 16.2482 30.376 16.1877 30.4318 16.1144L31.8484 14.2459C31.9042 14.1723 31.946 14.0874 31.9714 13.9962C31.9969 13.905 32.0054 13.8092 31.9967 13.7144C31.9879 13.6195 31.9619 13.5275 31.9203 13.4436C31.8786 13.3597 31.8221 13.2856 31.7539 13.2254Z" fill="#3C59C2"/>
</svg>
