<svg width="23" height="25" viewBox="0 0 23 25" fill="none" xmlns="http://www.w3.org/2000/svg">
<path d="M20.125 3.125H15.3333C15.3333 1.40137 13.6143 0 11.5 0C9.38568 0 7.66667 1.40137 7.66667 3.125H2.875C1.28776 3.125 0 4.1748 0 5.46875V22.6562C0 23.9502 1.28776 25 2.875 25H20.125C21.7122 25 23 23.9502 23 22.6562V5.46875C23 4.1748 21.7122 3.125 20.125 3.125ZM5.75 20.7031C4.95339 20.7031 4.3125 20.1807 4.3125 19.5312C4.3125 18.8818 4.95339 18.3594 5.75 18.3594C6.54661 18.3594 7.1875 18.8818 7.1875 19.5312C7.1875 20.1807 6.54661 20.7031 5.75 20.7031ZM5.75 16.0156C4.95339 16.0156 4.3125 15.4932 4.3125 14.8438C4.3125 14.1943 4.95339 13.6719 5.75 13.6719C6.54661 13.6719 7.1875 14.1943 7.1875 14.8438C7.1875 15.4932 6.54661 16.0156 5.75 16.0156ZM5.75 11.3281C4.95339 11.3281 4.3125 10.8057 4.3125 10.1562C4.3125 9.50684 4.95339 8.98438 5.75 8.98438C6.54661 8.98438 7.1875 9.50684 7.1875 10.1562C7.1875 10.8057 6.54661 11.3281 5.75 11.3281ZM11.5 1.95312C12.2966 1.95312 12.9375 2.47559 12.9375 3.125C12.9375 3.77441 12.2966 4.29688 11.5 4.29688C10.7034 4.29688 10.0625 3.77441 10.0625 3.125C10.0625 2.47559 10.7034 1.95312 11.5 1.95312ZM19.1667 19.9219C19.1667 20.1367 18.951 20.3125 18.6875 20.3125H10.0625C9.79896 20.3125 9.58333 20.1367 9.58333 19.9219V19.1406C9.58333 18.9258 9.79896 18.75 10.0625 18.75H18.6875C18.951 18.75 19.1667 18.9258 19.1667 19.1406V19.9219ZM19.1667 15.2344C19.1667 15.4492 18.951 15.625 18.6875 15.625H10.0625C9.79896 15.625 9.58333 15.4492 9.58333 15.2344V14.4531C9.58333 14.2383 9.79896 14.0625 10.0625 14.0625H18.6875C18.951 14.0625 19.1667 14.2383 19.1667 14.4531V15.2344ZM19.1667 10.5469C19.1667 10.7617 18.951 10.9375 18.6875 10.9375H10.0625C9.79896 10.9375 9.58333 10.7617 9.58333 10.5469V9.76562C9.58333 9.55078 9.79896 9.375 10.0625 9.375H18.6875C18.951 9.375 19.1667 9.55078 19.1667 9.76562V10.5469Z" fill="#13EBDE" fill-opacity="0.5"/>
</svg>
