<svg width="16" height="17" viewBox="0 0 16 17" fill="none" xmlns="http://www.w3.org/2000/svg">
<path d="M15.6193 2.57895e-07H14.1152C14.0636 -6.16128e-05 14.0126 0.0110095 13.9652 0.0325423C13.9178 0.0540752 13.875 0.085621 13.8394 0.125267C13.8038 0.164913 13.7762 0.211833 13.7581 0.263182C13.7401 0.314531 13.7321 0.369239 13.7345 0.423988L13.8614 3.21549C13.1236 2.29111 12.2052 1.54875 11.1701 1.04004C10.1351 0.531335 9.00817 0.268506 7.86787 0.269841C3.53229 0.269841 -0.00317039 4.03176 2.13347e-06 8.64132C0.00317466 13.2583 3.52468 17 7.86787 17C9.81613 17.0029 11.6956 16.2344 13.14 14.8443C13.1786 14.8076 13.2097 14.7629 13.2315 14.7129C13.2532 14.663 13.2652 14.6089 13.2666 14.5538C13.2681 14.4988 13.2589 14.444 13.2398 14.3929C13.2206 14.3417 13.1918 14.2953 13.1552 14.2564L12.0765 13.1096C12.0083 13.037 11.9166 12.9947 11.8202 12.9913C11.7237 12.9878 11.6296 13.0235 11.5569 13.091C10.7046 13.8883 9.64393 14.3904 8.51637 14.5304C7.38881 14.6704 6.24789 14.4417 5.24571 13.8747C4.24353 13.3077 3.42771 12.4295 2.907 11.357C2.38629 10.2844 2.18543 9.06866 2.3312 7.87169C2.47697 6.67471 2.96244 5.55341 3.7229 4.65727C4.48335 3.76112 5.48267 3.13271 6.58761 2.85581C7.69256 2.5789 8.85065 2.66666 9.90748 3.10739C10.9643 3.54811 11.8697 4.32086 12.5029 5.32262L9.28186 5.15835C9.23036 5.15575 9.17891 5.16429 9.13061 5.18346C9.08231 5.20264 9.03818 5.23204 9.00089 5.26989C8.9636 5.30773 8.93393 5.35324 8.91368 5.40364C8.89343 5.45405 8.88301 5.5083 8.88307 5.56311V7.16226C8.88307 7.26961 8.92318 7.37256 8.99458 7.44847C9.06597 7.52438 9.16281 7.56702 9.26378 7.56702H15.6193C15.7203 7.56702 15.8171 7.52438 15.8885 7.44847C15.9599 7.37256 16 7.26961 16 7.16226V0.404762C16 0.297412 15.9599 0.19446 15.8885 0.118552C15.8171 0.0426447 15.7203 2.57895e-07 15.6193 2.57895e-07Z" fill="white"/>
</svg>
