<svg width="19" height="23" viewBox="0 0 19 23" fill="none" xmlns="http://www.w3.org/2000/svg">
<path d="M16.625 2.875H12.6667C12.6667 1.28926 11.2466 0 9.5 0C7.75339 0 6.33333 1.28926 6.33333 2.875H2.375C1.0638 2.875 0 3.84082 0 5.03125V20.8438C0 22.0342 1.0638 23 2.375 23H16.625C17.9362 23 19 22.0342 19 20.8438V5.03125C19 3.84082 17.9362 2.875 16.625 2.875ZM4.75 19.0469C4.09193 19.0469 3.5625 18.5662 3.5625 17.9688C3.5625 17.3713 4.09193 16.8906 4.75 16.8906C5.40807 16.8906 5.9375 17.3713 5.9375 17.9688C5.9375 18.5662 5.40807 19.0469 4.75 19.0469ZM4.75 14.7344C4.09193 14.7344 3.5625 14.2537 3.5625 13.6562C3.5625 13.0588 4.09193 12.5781 4.75 12.5781C5.40807 12.5781 5.9375 13.0588 5.9375 13.6562C5.9375 14.2537 5.40807 14.7344 4.75 14.7344ZM4.75 10.4219C4.09193 10.4219 3.5625 9.94121 3.5625 9.34375C3.5625 8.74629 4.09193 8.26562 4.75 8.26562C5.40807 8.26562 5.9375 8.74629 5.9375 9.34375C5.9375 9.94121 5.40807 10.4219 4.75 10.4219ZM9.5 1.79688C10.1581 1.79688 10.6875 2.27754 10.6875 2.875C10.6875 3.47246 10.1581 3.95312 9.5 3.95312C8.84193 3.95312 8.3125 3.47246 8.3125 2.875C8.3125 2.27754 8.84193 1.79688 9.5 1.79688ZM15.8333 18.3281C15.8333 18.5258 15.6552 18.6875 15.4375 18.6875H8.3125C8.09479 18.6875 7.91667 18.5258 7.91667 18.3281V17.6094C7.91667 17.4117 8.09479 17.25 8.3125 17.25H15.4375C15.6552 17.25 15.8333 17.4117 15.8333 17.6094V18.3281ZM15.8333 14.0156C15.8333 14.2133 15.6552 14.375 15.4375 14.375H8.3125C8.09479 14.375 7.91667 14.2133 7.91667 14.0156V13.2969C7.91667 13.0992 8.09479 12.9375 8.3125 12.9375H15.4375C15.6552 12.9375 15.8333 13.0992 15.8333 13.2969V14.0156ZM15.8333 9.70312C15.8333 9.90078 15.6552 10.0625 15.4375 10.0625H8.3125C8.09479 10.0625 7.91667 9.90078 7.91667 9.70312V8.98438C7.91667 8.78672 8.09479 8.625 8.3125 8.625H15.4375C15.6552 8.625 15.8333 8.78672 15.8333 8.98438V9.70312Z" fill="white"/>
</svg>
