<svg width="25" height="25" viewBox="0 0 25 25" fill="none" xmlns="http://www.w3.org/2000/svg">
<path d="M0 12.1094C0 18.7988 5.41992 24.2188 12.1094 24.2188C18.7988 24.2188 24.2188 18.7988 24.2188 12.1094C24.2188 5.41992 18.7988 0 12.1094 0C5.41992 0 0 5.41992 0 12.1094ZM9.76562 9.76562C9.76562 10.6299 9.06738 11.3281 8.20312 11.3281C7.33887 11.3281 6.64062 10.6299 6.64062 9.76562C6.64062 8.90137 7.33887 8.20312 8.20312 8.20312C9.06738 8.20312 9.76562 8.90137 9.76562 9.76562ZM17.5049 10.5713C16.7822 9.92676 15.249 9.92676 14.5264 10.5713L14.0625 10.9863C13.6572 11.3477 13.0078 11.0059 13.0957 10.459C13.291 9.22852 14.7656 8.40332 16.0205 8.40332C17.2754 8.40332 18.75 9.22852 18.9453 10.459C19.0283 11.001 18.3887 11.3525 17.9785 10.9863L17.5049 10.5713ZM7.70508 15.5176C8.79883 16.8311 10.4004 17.5781 12.1094 17.5781C13.8184 17.5781 15.4199 16.8262 16.5137 15.5176C17.1777 14.7266 18.374 15.7227 17.7148 16.5186C16.3232 18.1836 14.2822 19.1406 12.1094 19.1406C9.93652 19.1406 7.89551 18.1836 6.50391 16.5137C5.84473 15.7178 7.05078 14.7217 7.70508 15.5176Z" fill="black"/>
</svg>
