<svg width="14" height="24" viewBox="0 0 14 24" fill="none" xmlns="http://www.w3.org/2000/svg">
<path d="M9.09737 4.49934C10.2565 4.49934 11.197 3.49168 11.197 2.24967C11.197 1.00766 10.2565 0 9.09737 0C7.93819 0 6.99772 1.00766 6.99772 2.24967C6.99772 3.49168 7.93819 4.49934 9.09737 4.49934ZM13.231 11.4874L12.2118 10.9343L11.7875 9.55641C11.1445 7.46609 9.35108 6.00381 7.31705 5.99912C5.74231 5.99443 4.87183 6.47249 3.23586 7.1802C2.29102 7.58795 1.51678 8.36127 1.06185 9.34551L0.768776 9.98291C0.427584 10.7234 0.703162 11.6233 1.38992 11.9936C2.07231 12.3638 2.90342 12.0639 3.24898 11.3233L3.54206 10.6859C3.69516 10.3579 3.94886 10.1001 4.26381 9.96417L5.43611 9.45799L4.77123 12.3029C4.54376 13.2777 4.78872 14.3135 5.42299 15.0587L8.04317 18.1239C8.35812 18.4942 8.58121 18.9394 8.69494 19.4222L9.49543 22.8576C9.68352 23.659 10.4446 24.1511 11.1926 23.9496C11.9406 23.7481 12.3999 22.9326 12.2118 22.1311L11.2408 17.9599C11.127 17.4771 10.9039 17.0272 10.589 16.6616L8.5987 14.3323L9.35108 11.1124L9.59166 11.8858C9.8235 12.6403 10.3222 13.2637 10.9783 13.6199L11.9975 14.1729C12.6799 14.5432 13.511 14.2432 13.8566 13.5027C14.1934 12.7669 13.9178 11.8576 13.231 11.4874ZM3.21836 18.0817C3.07839 18.4614 2.86842 18.8035 2.59722 19.0894L0.410087 21.4375C-0.136696 22.0233 -0.136696 22.9748 0.410087 23.5606C0.95687 24.1465 1.84047 24.1465 2.38725 23.5606L4.98556 20.7766C5.25239 20.4907 5.46236 20.1486 5.60671 19.769L6.19723 18.1848C3.77827 15.3587 4.5044 16.2257 4.12383 15.668L3.21836 18.0817Z" fill="black"/>
</svg>
