<svg width="15" height="16" viewBox="0 0 15 16" fill="none" xmlns="http://www.w3.org/2000/svg">
<path d="M14.5982 5H0.401786C0.1799 5 0 4.83209 0 4.625V3.5C0 2.67156 0.719531 2 1.60714 2H3.21429V0.375C3.21429 0.167906 3.39419 0 3.61607 0H4.95536C5.17724 0 5.35714 0.167906 5.35714 0.375V2H9.64286V0.375C9.64286 0.167906 9.82276 0 10.0446 0H11.3839C11.6058 0 11.7857 0.167906 11.7857 0.375V2H13.3929C14.2805 2 15 2.67156 15 3.5V4.625C15 4.83209 14.8201 5 14.5982 5ZM0.401786 6H14.5982C14.8201 6 15 6.16791 15 6.375V14.5C15 15.3284 14.2805 16 13.3929 16H1.60714C0.719531 16 0 15.3284 0 14.5V6.375C0 6.16791 0.1799 6 0.401786 6ZM11.5612 8.99834L10.6181 8.11091C10.4618 7.96388 10.2074 7.96291 10.0499 8.10878L6.49955 11.3958L4.96004 9.94728C4.80378 9.80025 4.54935 9.79928 4.39182 9.94516L3.44103 10.8255C3.28349 10.9713 3.28246 11.2088 3.43875 11.3558L6.20441 13.9579C6.36067 14.105 6.61507 14.1059 6.7726 13.9601L11.559 9.52866C11.7165 9.38281 11.7175 9.14537 11.5612 8.99834Z" fill="white"/>
</svg>
