<svg width="8" height="25" viewBox="0 0 8 25" fill="none" xmlns="http://www.w3.org/2000/svg">
<path d="M3.58222 8.60864C5.52557 8.61693 7.09111 10.1959 7.08282 12.1392C7.07454 14.0826 5.49558 15.6481 3.55224 15.6398C1.6089 15.6315 0.0433515 14.0526 0.0516387 12.1092C0.0599258 10.1659 1.63888 8.60035 3.58222 8.60864ZM0.0882854 3.51557C0.0799983 5.45891 1.64554 7.03787 3.58889 7.04615C5.53223 7.05444 7.11118 5.4889 7.11947 3.54555C7.12776 1.60221 5.56221 0.0232558 3.61887 0.0149686C1.67553 0.00668142 0.0965726 1.57223 0.0882854 3.51557ZM0.0149919 20.7029C0.0067047 22.6463 1.57225 24.2252 3.51559 24.2335C5.45893 24.2418 7.03789 22.6762 7.04618 20.7329C7.05446 18.7896 5.48892 17.2106 3.54558 17.2023C1.60224 17.194 0.023279 18.7596 0.0149919 20.7029Z" fill="black"/>
</svg>
