<svg width="45" height="47" viewBox="0 0 45 47" fill="none" xmlns="http://www.w3.org/2000/svg">
<path d="M16.25 0C13.9141 0 11.9766 1.88184 11.4219 4.42461C11.3594 4.42461 11.3125 4.40625 11.25 4.40625C8.49219 4.40625 6.25 7.04082 6.25 10.2812C6.25 10.7219 6.29687 11.1533 6.38281 11.5664C4.10156 12.668 2.5 15.2934 2.5 18.3594C2.5 19.516 2.75 20.59 3.14844 21.5631C1.27344 22.8299 0 25.1799 0 27.9062C0 30.9631 1.59375 33.5885 3.85938 34.69C3.78906 35.1123 3.75 35.5438 3.75 35.9844C3.75 39.6379 6.26562 42.5938 9.375 42.5938C9.69531 42.5938 10.0078 42.5479 10.3125 42.4836C11.0625 45.0998 13.1406 47 15.625 47C18.7344 47 21.25 44.0441 21.25 40.3906V5.875C21.25 2.63457 19.0078 0 16.25 0ZM45 27.9062C45 25.1799 43.7266 22.8299 41.8516 21.5631C42.2578 20.59 42.5 19.516 42.5 18.3594C42.5 15.2934 40.8984 12.668 38.6172 11.5664C38.6953 11.1533 38.75 10.7219 38.75 10.2812C38.75 7.04082 36.5078 4.40625 33.75 4.40625C33.6875 4.40625 33.6328 4.42461 33.5781 4.42461C33.0234 1.88184 31.0859 0 28.75 0C25.9922 0 23.75 2.62539 23.75 5.875V40.3906C23.75 44.0441 26.2656 47 29.375 47C31.8594 47 33.9375 45.0998 34.6875 42.4836C34.9922 42.5479 35.3047 42.5938 35.625 42.5938C38.7344 42.5938 41.25 39.6379 41.25 35.9844C41.25 35.5438 41.2109 35.1123 41.1406 34.69C43.4062 33.5885 45 30.9631 45 27.9062Z" fill="#3D41A6"/>
</svg>
