<svg width="27" height="21" viewBox="0 0 27 21" fill="none" xmlns="http://www.w3.org/2000/svg">
<path d="M16.8854 9.92992L14.2646 14.589C13.9482 15.1562 13.0307 15.1374 12.7407 14.5609L9.74026 8.64092L8.15832 12.0017H3.1963L12.8198 20.7434C13.1942 21.0855 13.8006 21.0855 14.175 20.7434L23.8037 12.0017H18.0507L16.8854 9.92992ZM24.9796 1.9663L24.8531 1.84912C22.1374 -0.616372 17.6921 -0.616372 14.9712 1.84912L13.5 3.18967L12.0288 1.8538C9.31313 -0.616372 4.86261 -0.616372 2.14695 1.8538L2.02039 1.9663C-0.547622 4.30054 -0.658358 8.01752 1.63545 10.5018H7.03514L8.92819 6.46136C9.21294 5.8567 10.1727 5.84264 10.4785 6.44261L13.5475 12.5032L16.1313 7.9144C16.4424 7.36131 17.3283 7.36131 17.6394 7.9144L19.0948 10.5018H25.3645C27.6584 8.01752 27.5476 4.30054 24.9796 1.9663Z" fill="black"/>
</svg>
