<svg width="40" height="31" viewBox="0 0 40 31" fill="none" xmlns="http://www.w3.org/2000/svg">
<path d="M38.5627 18.5516L29.4585 5.59107C27.9098 3.39062 25.4445 2.21429 22.9445 2.21429C21.3751 2.21429 19.7848 2.6779 18.3959 3.64665C17.0278 4.60156 16.0556 5.91629 15.514 7.36942C15.3126 3.26607 11.9445 0 7.77781 0C3.47918 0 0 3.46674 0 7.75V23.25C0 27.5333 3.47918 31 7.77781 31C12.0764 31 15.5556 27.5333 15.5556 23.25V12.9328C15.7848 13.5279 16.0626 14.1161 16.4445 14.6627L25.5557 27.6232C27.0973 29.8237 29.5626 31 32.0696 31C33.646 31 35.2293 30.5364 36.6182 29.5676C40.2085 27.0627 41.0766 22.129 38.5627 18.5516ZM11.1112 15.5H4.44446V7.75C4.44446 5.91629 5.93752 4.42857 7.77781 4.42857C9.6181 4.42857 11.1112 5.91629 11.1112 7.75V15.5ZM24.639 18.6069L20.0834 12.1232C19.5487 11.3621 19.3404 10.4348 19.507 9.52143C19.6667 8.60804 20.1806 7.80536 20.9445 7.27254C21.5348 6.85737 22.2293 6.64286 22.9445 6.64286C24.0904 6.64286 25.1598 7.19643 25.8126 8.13058L30.3682 14.6143L24.639 18.6069Z" fill="#EB2C20"/>
</svg>
